<?xml version="1.0" encoding="UTF-8"?>
<svg width="752pt" height="752pt" version="1.1" viewBox="0 0 752 752" xmlns="http://www.w3.org/2000/svg">
 <path d="m194.96 220.61c-4.0898 0-7.4023 3.3125-7.4023 7.3984v315.5c-6.8867 1.4492-12.945 4.957-17.066 10.453-5.5469 7.3945-7.6875 17.281-7.7109 29.215-0.003906 1.9648 0.77734 3.8516 2.1641 5.2422s3.2734 2.1719 5.2383 2.1719h49.566c1.4688 0 2.9062-0.44141 4.125-1.2617 1.2227 0.82031 2.6562 1.2617 4.1289 1.2617h49.555c0.28516-0.003906 0.57031-0.023438 0.85547-0.058594v0.058594h304.77c4.0898 0 7.4023-3.3125 7.4023-7.4023 0-11.938-2.1289-21.828-7.6797-29.227-4.125-5.5039-10.199-9.0078-17.109-10.453v-191.61c0-4.0859-3.3125-7.3984-7.4023-7.3984h-132.15c-4.0859 0-7.3984 3.3125-7.3984 7.3984v192.06c-2.9023-0.77344-5.9492-1.2148-9.1133-1.2148-9.8867 0-18.941 3.8203-24.488 11.215-0.10547 0.14062-0.18359 0.29688-0.28906 0.4375-0.10156-0.14062-0.18359-0.29688-0.28906-0.4375-0.17969-0.23828-0.39062-0.44141-0.57812-0.67188v-27.863c0.035156-4.2852 1-6.1914 2.0234-7.2148 1.0234-1.0234 2.875-1.9648 7.1016-1.9648 4.2188 0 6.0625 0.94141 7.0859 1.9648 1.0234 1.0234 2.0039 2.9297 2.0352 7.2148-0.007813 1.9766 0.77734 3.875 2.1758 5.2734 1.4023 1.3945 3.3047 2.1719 5.2812 2.1562 1.9805-0.015625 3.8672-0.82422 5.2461-2.2383 1.3789-1.418 2.1367-3.332 2.0977-5.3086-0.050781-6.7305-1.8789-13.078-6.3594-17.562-2.7383-2.7383-6.2305-4.3867-10.027-5.3281 3.2344-1.8633 6.2461-2.6953 8.9844-2.6953 1.9805 0.027344 3.8906-0.73828 5.3008-2.1289 1.4102-1.3906 2.207-3.2891 2.207-5.2695s-0.79688-3.8789-2.207-5.2695c-1.4102-1.3906-3.3203-2.1602-5.3008-2.1328-9.2266 0-17.723 4.1875-25.645 11.609v-268.53c0-4.0859-3.3125-7.3984-7.3984-7.3984zm7.3984 14.797h166.93v261.13c-7.9219-7.4219-16.418-11.609-25.645-11.609-1.9805-0.027343-3.8906 0.74219-5.3008 2.1328-1.4102 1.3906-2.207 3.2891-2.207 5.2695s0.79688 3.8789 2.207 5.2695c1.4102 1.3906 3.3203 2.1562 5.3008 2.1289 2.7383 0 5.75 0.83203 8.9805 2.6953-3.7969 0.94141-7.293 2.5859-10.035 5.3281-4.4805 4.4844-6.2969 10.832-6.3477 17.562-0.039062 1.9766 0.71484 3.8906 2.0977 5.3086 1.3789 1.4141 3.2656 2.2227 5.2461 2.2383 1.9766 0.015625 3.8789-0.76172 5.2773-2.1562 1.4023-1.3984 2.1875-3.2969 2.1797-5.2734 0.03125-4.2852 1.0117-6.1914 2.0352-7.2148 1.0234-1.0234 2.8555-1.9648 7.0742-1.9648 4.2227 0 6.0781 0.94141 7.1016 1.9648 1.0234 1.0234 2 2.9297 2.0352 7.2148v18.535c-2.9062-0.77344-5.9688-1.2148-9.1367-1.2148-9.8867 0-18.918 3.8164-24.465 11.215-0.10547 0.14062-0.1875 0.29688-0.28906 0.4375-0.10156-0.14062-0.18359-0.29688-0.28906-0.4375-5.5508-7.4023-14.605-11.215-24.512-11.215-9.8867 0-18.918 3.8203-24.465 11.215-1.8438 2.4609-3.2891 5.2266-4.4258 8.2188-1.1367-2.9922-2.582-5.7578-4.4297-8.2188-0.18359-0.24219-0.39844-0.44531-0.58984-0.68359v-27.492c0.003907-0.12109 0.003907-0.24219 0-0.35937 0.035157-4.2852 1.0234-6.1914 2.0469-7.2148 1.0234-1.0234 2.8672-1.9648 7.0859-1.9648 4.2227 0 6.0781 0.94141 7.1016 1.9648 1.0234 1.0234 1.9883 2.9297 2.0234 7.2148-0.007813 1.9766 0.77344 3.875 2.1758 5.2734 1.4023 1.3945 3.3047 2.1719 5.2812 2.1562 1.9766-0.015625 3.8672-0.82422 5.2461-2.2383 1.3789-1.418 2.1328-3.332 2.0938-5.3086-0.054688-6.7305-1.875-13.078-6.3594-17.562-2.7422-2.7422-6.2266-4.3867-10.023-5.3281 3.2344-1.8633 6.2422-2.6953 8.9844-2.6953 1.9805 0.027344 3.8906-0.73828 5.3008-2.1289s2.2031-3.2891 2.2031-5.2695-0.79297-3.8789-2.2031-5.2695-3.3203-2.1602-5.3008-2.1328c-9.2344 0-17.73 4.1914-25.656 11.621v-12.465c0.027344-1.9961-0.75391-3.9219-2.168-5.3359-1.4141-1.4141-3.3359-2.1953-5.3359-2.168-4.0859 0.058594-7.3516 3.418-7.2969 7.5039v12.441c-7.918-7.4141-16.406-11.598-25.633-11.598-1.9805-0.027343-3.8906 0.74219-5.3008 2.1328-1.4102 1.3906-2.2031 3.2891-2.2031 5.2695s0.79297 3.8789 2.2031 5.2695c1.4102 1.3906 3.3203 2.1562 5.3008 2.1289 2.7461 0 5.75 0.83203 8.9844 2.6953-3.793 0.94141-7.2734 2.5898-10.012 5.3281-4.4844 4.4844-6.3164 10.832-6.3711 17.562-0.039062 1.9766 0.71484 3.8906 2.0938 5.3086 1.3789 1.4141 3.2695 2.2227 5.2461 2.2383 1.9805 0.015625 3.8789-0.76172 5.2812-2.1562 1.4023-1.3984 2.1875-3.2969 2.1797-5.2734 0.03125-4.2852 1.0078-6.1914 2.0352-7.2148 1.0234-1.0234 2.8789-1.9648 7.0977-1.9648s6.0547 0.94141 7.0742 1.9648c1.0234 1.0234 1.9922 2.9297 2.0234 7.2148v18.523c-2.8945-0.76953-5.9414-1.2031-9.0977-1.2031-9.8867 0-18.941 3.8203-24.488 11.215-1.8438 2.457-3.2812 5.2188-4.418 8.207-1.1328-2.9883-2.5742-5.75-4.418-8.207-4.1289-5.5078-10.191-9.0117-17.109-10.453zm27.438 18.5c-4.582 0-8.3047 3.7227-8.3047 8.3008v16.695c0 4.582 3.7227 8.3008 8.3047 8.3008h16.543c4.582 0 8.3008-3.7188 8.3008-8.3008v-16.695c0-4.5781-3.7188-8.3008-8.3008-8.3008zm47.645 0c-4.5781 0-8.3008 3.7227-8.3008 8.3008v16.695c0 4.582 3.7227 8.3008 8.3008 8.3008h16.559c4.5781 0 8.3008-3.7188 8.3008-8.3008v-16.695c0-4.5781-3.7227-8.3008-8.3008-8.3008zm47.66 0c-4.582 0-8.3008 3.7227-8.3008 8.3008v16.695c0 4.582 3.7188 8.3008 8.3008 8.3008h16.547c4.5781 0 8.3008-3.7188 8.3008-8.3008v-16.695c0-4.5781-3.7227-8.3008-8.3008-8.3008zm-95.305 58.273c-4.582 0-8.3047 3.7188-8.3047 8.3008v16.695c0 4.582 3.7227 8.3008 8.3047 8.3008h16.543c4.582 0 8.3008-3.7188 8.3008-8.3008v-16.695c0-4.582-3.7188-8.3008-8.3008-8.3008zm47.645 0c-4.5781 0-8.3008 3.7188-8.3008 8.3008v16.695c0 4.582 3.7227 8.3008 8.3008 8.3008h16.559c4.5781 0 8.3008-3.7188 8.3008-8.3008v-16.695c0-4.582-3.7227-8.3008-8.3008-8.3008zm47.66 0c-4.582 0-8.3008 3.7188-8.3008 8.3008v16.695c0 4.582 3.7188 8.3008 8.3008 8.3008h16.547c4.5781 0 8.3008-3.7188 8.3008-8.3008v-16.695c0-4.582-3.7227-8.3008-8.3008-8.3008zm108.54 47.125h117.36v184.21c-6.8945 1.4453-12.941 4.957-17.066 10.453-0.10547 0.14062-0.18359 0.29688-0.28906 0.4375-0.10156-0.14062-0.18359-0.29688-0.28906-0.4375-5.5508-7.4023-14.605-11.215-24.512-11.215-6.3867 0-12.398 1.6172-17.363 4.7383v-22.059c0.03125-4.2852 0.98828-6.1914 2.0117-7.2148 1.0195-1.0234 2.8789-1.9648 7.0977-1.9648s6.0625 0.94141 7.0859 1.9648c1.0273 1.0234 2.0039 2.9297 2.0352 7.2148-0.007813 1.9766 0.77734 3.875 2.1797 5.2734 1.4023 1.3945 3.3008 2.1719 5.2812 2.1562 1.9766-0.015625 3.8672-0.82422 5.2461-2.2383 1.3789-1.418 2.1328-3.332 2.0938-5.3086-0.054687-6.7305-1.8867-13.078-6.3711-17.562-2.7383-2.7383-6.2227-4.3867-10.012-5.3281 3.2344-1.8633 6.2383-2.6953 8.9844-2.6953 1.9805 0.027344 3.8906-0.73828 5.3008-2.1289 1.4102-1.3906 2.2031-3.2891 2.2031-5.2695s-0.79297-3.8789-2.2031-5.2695c-1.4102-1.3906-3.3203-2.1602-5.3008-2.1328-9.2305 0-17.715 4.1875-25.633 11.609v-12.453c0.027344-2-0.75781-3.9258-2.1719-5.3398-1.418-1.4141-3.3438-2.1953-5.3438-2.1641-4.082 0.066406-7.3438 3.4219-7.2852 7.5039v12.465c-7.9219-7.4297-16.414-11.621-25.645-11.621-1.9805-0.027343-3.8906 0.74219-5.3008 2.1328-1.4102 1.3906-2.2031 3.2891-2.2031 5.2695s0.79297 3.8789 2.2031 5.2695c1.4102 1.3906 3.3203 2.1562 5.3008 2.1289 2.7422 0 5.75 0.83203 8.9844 2.6953-3.7969 0.94141-7.2812 2.5859-10.023 5.3281-4.4844 4.4844-6.3086 10.832-6.3594 17.562-0.039063 1.9766 0.71484 3.8906 2.0938 5.3086 1.3789 1.4141 3.2695 2.2227 5.2461 2.2383 1.9766 0.015625 3.8789-0.76172 5.2812-2.1562 1.4023-1.3984 2.1836-3.2969 2.1758-5.2734 0.035156-4.2852 1.0039-6.1914 2.0234-7.2148 1.0234-1.0234 2.8672-1.9648 7.0898-1.9648 4.2188 0 6.0625 0.94141 7.0859 1.9648 1.0234 1.0234 2.0117 2.9297 2.0469 7.2148v22.059c-4.9727-3.1172-10.992-4.7383-17.391-4.7383-9.8867 0-18.918 3.8203-24.465 11.215-0.10547 0.14453-0.19531 0.30469-0.30078 0.44922-0.10547-0.14453-0.19141-0.30469-0.30078-0.44922-0.31641-0.42188-0.67578-0.79297-1.0156-1.1914 0.30469-0.83984 0.45312-1.7305 0.4375-2.625zm-203.85 12.996c-4.582 0-8.3047 3.7227-8.3047 8.3008v16.695c0 4.582 3.7227 8.3047 8.3047 8.3047h16.543c4.582 0 8.3008-3.7227 8.3008-8.3047v-16.695c0-4.5781-3.7188-8.3008-8.3008-8.3008zm47.645 0c-4.5781 0-8.3008 3.7227-8.3008 8.3008v16.695c0 4.582 3.7227 8.3047 8.3008 8.3047h16.559c4.5781 0 8.3008-3.7227 8.3008-8.3047v-16.695c0-4.5781-3.7227-8.3008-8.3008-8.3008zm47.66 0c-4.582 0-8.3008 3.7227-8.3008 8.3008v16.695c0 4.582 3.7188 8.3047 8.3008 8.3047h16.547c4.5781 0 8.3008-3.7227 8.3008-8.3047v-16.695c0-4.5781-3.7227-8.3008-8.3008-8.3008zm134.09 0c-4.582 0-8.3008 3.7227-8.3008 8.3008v16.695c0 4.582 3.7188 8.3047 8.3008 8.3047h16.543c4.582 0 8.3008-3.7227 8.3008-8.3047v-16.695c0-4.5781-3.7188-8.3008-8.3008-8.3008zm49.602 0c-4.5898 0-8.3164 3.7227-8.3164 8.3008v16.695c0 4.582 3.7266 8.3047 8.3164 8.3047h16.531c4.582 0 8.3008-3.7227 8.3008-8.3047v-16.695c0-4.5781-3.7188-8.3008-8.3008-8.3008zm-278.99 58.273c-4.582 0-8.3047 3.7227-8.3047 8.3008v16.695c0 4.582 3.7227 8.3008 8.3047 8.3008h16.543c4.582 0 8.3008-3.7188 8.3008-8.3008v-16.695c0-4.5781-3.7188-8.3008-8.3008-8.3008zm47.645 0c-4.5781 0-8.3008 3.7227-8.3008 8.3008v16.695c0 4.582 3.7227 8.3008 8.3008 8.3008h16.559c4.5781 0 8.3008-3.7188 8.3008-8.3008v-16.695c0-4.5781-3.7227-8.3008-8.3008-8.3008zm47.66 0c-4.582 0-8.3008 3.7227-8.3008 8.3008v16.695c0 4.582 3.7188 8.3008 8.3008 8.3008h16.547c4.5781 0 8.3008-3.7188 8.3008-8.3008v-16.695c0-4.5781-3.7227-8.3008-8.3008-8.3008zm134.09 0c-4.582 0-8.3008 3.7227-8.3008 8.3008v16.695c0 4.582 3.7188 8.3008 8.3008 8.3008h16.543c4.582 0 8.3008-3.7188 8.3008-8.3008v-16.695c0-4.5781-3.7188-8.3008-8.3008-8.3008zm49.602 0c-4.5898 0-8.3164 3.7227-8.3164 8.3008v16.695c0 4.582 3.7266 8.3008 8.3164 8.3008h16.531c4.582 0 8.3008-3.7188 8.3008-8.3008v-16.695c0-4.5781-3.7188-8.3008-8.3008-8.3008zm-256 126.97c6.6172 0 9.9492 1.6953 12.66 5.3086 1.7227 2.2969 2.1758 8.082 2.9961 12.938h-31.312c0.82812-4.8516 1.293-10.637 3.0195-12.938 2.7109-3.6172 6.0469-5.3086 12.637-5.3086zm57.809 0c6.6172 0 9.9648 1.6953 12.672 5.3086 1.7227 2.2969 2.1758 8.082 2.9961 12.938h-31.309c0.82422-4.8516 1.2812-10.637 3.0039-12.938 2.7148-3.6172 6.0469-5.3086 12.637-5.3086zm49.555 0c6.6172 0 9.9648 1.6953 12.672 5.3086 1.7266 2.2969 2.1758 8.082 2.9961 12.938h-31.297c0.82422-4.8516 1.2812-10.641 3.0039-12.938 2.7109-3.6172 6.0352-5.3086 12.625-5.3086zm49.578 0c6.6172 0 9.9414 1.6953 12.648 5.3086 1.7266 2.2969 2.1758 8.082 2.9961 12.938h-31.297c0.82422-4.8516 1.293-10.637 3.0156-12.938 2.7148-3.6172 6.0469-5.3086 12.637-5.3086zm49.555 0c6.6172 0 9.9531 1.6953 12.66 5.3086 1.7266 2.2969 2.1875 8.082 3.0078 12.938h-31.32c0.82812-4.8516 1.293-10.637 3.0156-12.938 2.7148-3.6172 6.0469-5.3086 12.637-5.3086zm49.555 0c6.6172 0 9.9531 1.6953 12.66 5.3086 1.7266 2.2969 2.1875 8.082 3.0078 12.938h-31.297c0.82422-4.8516 1.2812-10.641 3.0039-12.938 2.7109-3.6172 6.0352-5.3086 12.625-5.3086zm-314.68 0.058594c0.53906 0.058593 1.082 0.058593 1.6211 0 6.0195 0.15234 9.2656 1.8047 11.852 5.25 1.7227 2.2969 2.1875 8.082 3.0039 12.938h-31.32c0.82813-4.8516 1.293-10.637 3.0156-12.938 2.5898-3.4531 5.8203-5.1016 11.828-5.25zm363.44 0c0.53906 0.058593 1.082 0.058593 1.6211 0 6.0195 0.15234 9.2656 1.8047 11.848 5.25 1.7266 2.2969 2.1758 8.082 2.9961 12.938h-31.297c0.82812-4.8516 1.2812-10.637 3.0039-12.938 2.5898-3.4531 5.8203-5.1016 11.828-5.25z"/>
</svg>
